<?xml version="1.0" encoding="utf-8"?>
<!-- Generator: Adobe Illustrator 24.0.0, SVG Export Plug-In . SVG Version: 6.00 Build 0)  -->
<svg version="1.1" id="Layer_1" xmlns="http://www.w3.org/2000/svg" xmlns:xlink="http://www.w3.org/1999/xlink" x="0px" y="0px"
	 viewBox="0 0 844 278" style="enable-background:new 0 0 844 278;" xml:space="preserve">
<style type="text/css">
	.st0{fill:#26211D;}
</style>
<g>
	<g>
		<path class="st0" d="M257.3,79.8c-34.7-63.2-102.7-92.6-151.9-65.7c-6.1,3.3-11.5,7.3-16.4,11.9c-3.3,0.2-6.5,0.5-9.7,1
			c-9.1,1.4-18,4.4-26.3,8.9C3.6,62.9-8.2,136.1,26.4,199.4C61.1,262.6,129.1,292,178.4,265c6-3.3,11.5-7.3,16.4-11.9
			c3.3-0.2,6.5-0.5,9.8-1c9.1-1.4,18-4.4,26.3-8.9C280.1,216.2,292,143,257.3,79.8z M156.1,251.8c-3.6,0.3-7.3,0.3-11,0.1
			c-33.5-2.2-68.6-25.7-89.4-63.7C28.9,139.4,34.9,83.7,67.8,57c-1.8,4.4-3.4,9-4.7,13.7c-5.3,19.9-5.5,42.6-0.1,65.5
			c2.3,14.6,7.4,29.6,15.2,43.9c8.3,15.1,18.8,27.9,30.5,38c4.1,3.5,8.4,6.7,12.7,9.6c8.7,6.6,17.8,12.1,27.2,16.2
			c0.5,0.2,1,0.4,1.6,0.7c5.5,2.3,11.1,4.2,16.7,5.6C163.4,251,159.7,251.5,156.1,251.8z"/>
	</g>
	<g>
		<path class="st0" d="M320.5,77.9h-24.4V60.1h71.2v17.8H343v61.6h-22.5V77.9z"/>
		<path class="st0" d="M451.3,60.1v79.5h-22.5v-31h-30.6v31h-22.5V60.1h22.5v29.9h30.6V60.1H451.3z"/>
		<path class="st0" d="M531,122.2v17.4h-63.8V60.1h62.3v17.4h-40.1v13.4h35.3v16.8h-35.3v14.5H531z"/>
		<path class="st0" d="M320.8,239.7c-6.6-3.5-11.8-8.4-15.6-14.7c-3.8-6.3-5.7-13.4-5.7-21.3s1.9-15.1,5.7-21.3
			c3.8-6.3,9-11.2,15.6-14.7c6.6-3.5,14.1-5.3,22.4-5.3c7.3,0,13.8,1.3,19.6,3.9c5.8,2.6,10.7,6.3,14.5,11.1l-14.3,12.9
			c-5.1-6.2-11.4-9.3-18.7-9.3c-4.3,0-8.2,0.9-11.5,2.8c-3.4,1.9-6,4.6-7.8,8c-1.9,3.4-2.8,7.4-2.8,11.9c0,4.5,0.9,8.4,2.8,11.9
			c1.9,3.4,4.5,6.1,7.8,8c3.4,1.9,7.2,2.8,11.5,2.8c7.3,0,13.6-3.1,18.7-9.3l14.3,12.9c-3.9,4.8-8.7,8.6-14.5,11.1
			c-5.8,2.6-12.4,3.9-19.6,3.9C334.9,245,327.4,243.2,320.8,239.7z"/>
		<path class="st0" d="M403.1,239.7c-6.7-3.6-12-8.5-15.8-14.8c-3.8-6.3-5.7-13.4-5.7-21.2c0-7.9,1.9-14.9,5.7-21.2
			c3.8-6.3,9.1-11.2,15.8-14.8c6.7-3.6,14.2-5.3,22.6-5.3c8.4,0,15.9,1.8,22.6,5.3c6.7,3.6,12,8.5,15.8,14.8
			c3.8,6.3,5.7,13.4,5.7,21.2c0,7.9-1.9,14.9-5.7,21.2c-3.8,6.3-9.1,11.2-15.8,14.8c-6.7,3.6-14.2,5.3-22.6,5.3
			C417.3,245,409.8,243.2,403.1,239.7z M436.6,223.6c3.3-1.9,5.8-4.6,7.7-8c1.9-3.4,2.8-7.4,2.8-11.9c0-4.5-0.9-8.4-2.8-11.9
			c-1.9-3.4-4.5-6.1-7.7-8c-3.3-1.9-6.9-2.8-10.9-2.8c-4,0-7.6,0.9-10.9,2.8c-3.3,1.9-5.8,4.6-7.7,8c-1.9,3.4-2.8,7.4-2.8,11.9
			c0,4.5,0.9,8.4,2.8,11.9c1.9,3.4,4.5,6.1,7.7,8c3.3,1.9,6.9,2.8,10.9,2.8C429.7,226.4,433.4,225.4,436.6,223.6z"/>
		<path class="st0" d="M499.1,239.7c-6.7-3.6-12-8.5-15.8-14.8c-3.8-6.3-5.7-13.4-5.7-21.2c0-7.9,1.9-14.9,5.7-21.2
			c3.8-6.3,9.1-11.2,15.8-14.8c6.7-3.6,14.2-5.3,22.6-5.3c8.4,0,15.9,1.8,22.6,5.3c6.7,3.6,12,8.5,15.8,14.8
			c3.8,6.3,5.7,13.4,5.7,21.2c0,7.9-1.9,14.9-5.7,21.2c-3.8,6.3-9.1,11.2-15.8,14.8c-6.7,3.6-14.2,5.3-22.6,5.3
			C513.4,245,505.8,243.2,499.1,239.7z M532.7,223.6c3.3-1.9,5.8-4.6,7.7-8c1.9-3.4,2.8-7.4,2.8-11.9c0-4.5-0.9-8.4-2.8-11.9
			c-1.9-3.4-4.5-6.1-7.7-8c-3.3-1.9-6.9-2.8-10.9-2.8c-4,0-7.6,0.9-10.9,2.8c-3.3,1.9-5.8,4.6-7.7,8c-1.9,3.4-2.8,7.4-2.8,11.9
			c0,4.5,0.9,8.4,2.8,11.9c1.9,3.4,4.5,6.1,7.7,8c3.3,1.9,6.9,2.8,10.9,2.8C525.8,226.4,529.4,225.4,532.7,223.6z"/>
		<path class="st0" d="M608.4,214.6l-8.4,9v19.9h-22.2V164H600v33l30.8-33h24.7L623,199.2l34.2,44.3h-26.1L608.4,214.6z"/>
		<path class="st0" d="M663.1,164h22.5v79.5h-22.5V164z"/>
		<path class="st0" d="M765.3,226.1v17.4h-63.8V164h62.3v17.4h-40.1v13.4h35.3v16.8h-35.3v14.5H765.3z"/>
		<path class="st0" d="M787,242.6c-6.1-1.6-11-3.7-14.8-6.4l7.4-16.6c3.6,2.3,7.7,4.2,12.4,5.7c4.7,1.4,9.3,2.2,13.8,2.2
			c8.6,0,12.9-2.2,12.9-6.5c0-2.3-1.2-4-3.7-5.1c-2.5-1.1-6.4-2.3-11.9-3.5c-6-1.3-11-2.7-15-4.1c-4-1.5-7.5-3.8-10.3-7.1
			c-2.9-3.3-4.3-7.6-4.3-13.2c0-4.8,1.3-9.2,4-13.1c2.6-3.9,6.6-7,11.9-9.3c5.3-2.3,11.7-3.4,19.4-3.4c5.2,0,10.4,0.6,15.4,1.8
			c5.1,1.2,9.5,2.9,13.4,5.2l-6.9,16.7c-7.6-4.1-14.9-6.1-22-6.1c-4.5,0-7.7,0.7-9.8,2c-2,1.3-3.1,3-3.1,5.2c0,2.1,1.2,3.7,3.6,4.8
			c2.4,1.1,6.3,2.2,11.7,3.3c6.1,1.3,11.1,2.7,15,4.1s7.4,3.8,10.3,7c2.9,3.2,4.4,7.6,4.4,13.1c0,4.8-1.3,9.1-4,12.9
			c-2.6,3.9-6.6,6.9-11.9,9.3c-5.3,2.3-11.7,3.5-19.3,3.5C799.3,245,793.1,244.2,787,242.6z"/>
	</g>
</g>
</svg>
